<?xml version="1.0" standalone="no"?>
<!DOCTYPE svg PUBLIC "-//W3C//DTD SVG 20010904//EN"
 "http://www.w3.org/TR/2001/REC-SVG-20010904/DTD/svg10.dtd">
<svg version="1.0" xmlns="http://www.w3.org/2000/svg"
 width="620.000000pt" height="620.000000pt" viewBox="0 0 620.000000 620.000000"
 preserveAspectRatio="xMidYMid meet">
<metadata>
Created by potrace 1.11, written by Peter Selinger 2001-2013
</metadata>
<g transform="translate(0.000000,620.000000) scale(0.100000,-0.100000)"
fill="#000000" stroke="none">
<path d="M3035 6083 c-25 -6 -103 -66 -180 -138 -33 -31 -100 -83 -150 -116
-49 -32 -96 -64 -102 -69 -7 -6 -13 -9 -13 -6 0 3 -21 -5 -47 -18 -27 -13 -66
-30 -88 -37 -22 -8 -43 -18 -47 -24 -4 -5 -8 -7 -8 -4 0 4 -40 -4 -89 -16 -92
-24 -138 -34 -181 -39 -14 -2 -50 -7 -80 -11 -88 -13 -329 -8 -405 8 -11 3
-45 8 -75 13 -30 4 -57 8 -60 9 -3 0 -11 4 -17 8 -7 5 -13 6 -13 3 0 -2 -24 2
-52 10 -29 8 -62 17 -73 19 -38 8 -130 38 -173 57 -23 10 -50 20 -60 22 -9 1
-30 8 -47 15 -171 70 -269 88 -302 56 -8 -8 -18 -15 -22 -15 -15 0 -45 -82
-42 -118 4 -69 8 -87 50 -212 46 -134 49 -144 56 -205 3 -22 7 -47 10 -55 3
-14 11 -97 21 -225 4 -59 4 -399 0 -470 -6 -92 -17 -230 -21 -255 -3 -14 -7
-43 -9 -65 -3 -22 -8 -51 -11 -65 -3 -14 -8 -45 -11 -70 -9 -67 -12 -83 -17
-106 -3 -12 -8 -37 -11 -55 -3 -19 -10 -59 -16 -89 -6 -30 -13 -68 -15 -85 -7
-63 -17 -130 -21 -136 -1 -3 -6 -28 -9 -55 -4 -27 -8 -60 -11 -74 -6 -38 -22
-141 -28 -180 -2 -19 -8 -57 -12 -85 -3 -27 -8 -59 -10 -70 -2 -11 -7 -45 -10
-75 -3 -30 -7 -66 -9 -80 -3 -14 -7 -54 -11 -90 -3 -36 -7 -77 -10 -91 -16
-99 -23 -495 -12 -599 9 -76 33 -194 54 -265 8 -27 14 -50 13 -50 -10 0 76
-217 101 -255 5 -8 24 -40 42 -70 17 -30 34 -57 37 -60 4 -3 25 -30 47 -60 86
-115 237 -252 379 -346 86 -56 95 -61 148 -86 26 -13 47 -26 47 -30 0 -5 5 -8
11 -8 6 0 44 -15 83 -34 99 -47 252 -108 381 -152 61 -20 128 -45 150 -54 22
-10 51 -22 65 -25 14 -4 44 -16 67 -26 58 -26 87 -37 94 -35 4 0 15 -7 25 -16
11 -9 31 -20 47 -23 15 -4 27 -10 27 -14 0 -3 20 -15 45 -26 25 -11 45 -23 45
-27 0 -5 5 -8 11 -8 5 0 37 -18 69 -40 32 -22 64 -40 69 -40 6 0 11 -4 11 -8
0 -5 21 -24 48 -42 26 -19 49 -37 52 -41 3 -3 37 -32 75 -63 39 -31 79 -64 89
-73 48 -39 95 -59 161 -67 52 -6 167 57 305 169 41 33 79 63 85 68 5 4 26 20
47 35 36 27 49 35 158 98 50 30 278 144 285 144 2 0 14 4 27 9 13 5 28 10 33
11 6 1 18 6 28 12 10 5 26 11 35 13 22 5 258 89 297 105 17 7 39 15 50 17 10
2 23 9 27 16 4 6 8 9 8 5 0 -26 451 207 490 253 3 3 13 10 22 15 63 34 302
273 317 318 2 6 7 13 11 16 25 17 170 282 170 309 0 5 5 22 12 38 16 39 20 54
22 81 0 12 4 22 7 22 6 0 13 26 25 90 2 8 6 31 10 50 9 49 16 95 30 195 11 84
4 425 -10 515 -3 14 -8 61 -11 105 -13 142 -27 254 -50 404 -4 24 -9 58 -11
75 -8 65 -33 214 -41 251 -2 11 -6 31 -8 45 -3 23 -6 42 -19 105 -2 11 -12 65
-21 120 -24 140 -26 147 -30 175 -1 14 -4 25 -5 25 -1 0 -3 11 -4 25 -4 41
-17 131 -22 154 -3 12 -7 41 -8 66 -2 25 -8 95 -12 155 -10 127 -10 507 -1
611 7 73 18 171 22 189 8 40 23 87 62 205 28 84 47 157 48 194 3 59 -10 116
-26 116 -5 0 -9 6 -9 14 0 8 -16 20 -36 28 -45 18 -111 6 -244 -43 -134 -49
-283 -99 -310 -104 -14 -2 -51 -11 -82 -20 -32 -8 -72 -17 -90 -20 -18 -3 -44
-7 -58 -10 -14 -2 -45 -7 -70 -10 -69 -9 -103 -15 -111 -21 -4 -2 -11 0 -14 6
-4 7 -11 7 -18 2 -19 -14 -239 -6 -343 12 -17 3 -46 8 -65 10 -99 13 -280 71
-398 129 -48 23 -90 40 -94 39 -5 -1 -6 2 -2 7 3 6 -6 13 -20 17 -14 3 -25 9
-25 13 0 4 -25 24 -55 46 -30 22 -55 43 -55 48 0 4 -4 7 -8 7 -5 0 -30 20 -56
44 -26 25 -56 48 -67 51 -10 4 -19 10 -19 15 0 4 -19 18 -43 29 -42 20 -71 24
-112 14z"/>
</g>
</svg>
