<?xml version="1.0" encoding="utf-8"?>
<!-- Generator: Adobe Illustrator 16.0.0, SVG Export Plug-In . SVG Version: 6.00 Build 0)  -->
<!DOCTYPE svg PUBLIC "-//W3C//DTD SVG 1.1//EN" "http://www.w3.org/Graphics/SVG/1.1/DTD/svg11.dtd">
<svg version="1.1" id="Layer_1" xmlns="http://www.w3.org/2000/svg" xmlns:xlink="http://www.w3.org/1999/xlink" x="0px" y="0px"
	 width="262.688px" height="309.888px" viewBox="-0.429 -0.375 262.688 309.888"
	 enable-background="new -0.429 -0.375 262.688 309.888" xml:space="preserve">
<g>
	<path fill="#FFFFFF" d="M239.745,88.089c-1.414-21.477,0-43.434,3.353-51.529c4.794-10.479,3.824-14.277,2.411-15.718
		c-0.496-0.474-1.439-0.968-2.411-0.968c-1.888,0-4.27,0.968-8.093,2.408c-0.973,0.474-2.39,0.944-3.8,1.416
		c-18.129,6.653-32.436,8.096-41.969,8.096c-2.384,0-5.241,0-7.652-0.498c-26.224-2.832-37.646-13.363-44.327-19.544
		c-2.853-2.83-5.235-4.77-7.177-4.77c-1.913,0-3.8,1.887-7.154,4.77c-6.677,6.181-18.599,16.712-44.351,19.544
		c-2.385,0-4.768,0.498-7.649,0.498c-9.063,0-23.838-1.442-41.944-8.096c-1.414-0.472-2.853-0.942-3.822-1.416
		c-3.407-0.523-5.766-1.938-7.678-1.938c-0.943,0-1.44,0.47-2.411,0.943c-1.414,1.438-1.885,5.24,2.411,15.716
		c3.354,8.122,4.768,30.075,3.354,51.533c-0.497,8.096-2.409,19.543-4.794,32.433c-3.799,21.456-8.097,48.149-8.097,71.076
		c0.472,9.51,3.827,28.137,10.035,37.201c13.832,24.31,40.057,33.373,59.599,40.03c5.24,1.909,10.037,3.351,13.859,5.24
		c14.775,7.173,23.371,13.83,28.582,18.598c4.299,3.824,7.181,5.709,10.031,5.709c2.858,0,5.716-2.354,10.037-5.709
		c5.71-4.768,13.834-11.425,28.606-18.598c3.801-1.89,8.097-3.331,13.833-5.24c19.07-6.657,45.321-15.721,59.627-40.03
		c6.681-9.064,10.031-27.667,10.48-37.697c0-22.873-4.772-49.595-8.099-71.079C242.155,107.606,240.24,96.159,239.745,88.089z
		 M237.31,227.777c-17.163,30.075-56.248,35.34-70.579,42.94c-20.512,8.62-36.728,23.864-36.728,23.864
		s-16.218-15.298-36.732-23.864c-14.276-7.625-53.392-12.89-70.577-42.94c-6.676-9.532-9.534-30.023-10.033-38.144
		c0-34.818,12.394-87.262,12.394-103.009c5.264-31.462-5.714-61.513-5.714-61.513s31.464,12.89,54.39,10.978
		c44.825-3.8,49.118-23.369,56.273-23.369c6.677,0,11.447,19.569,56.298,23.369c23.339,1.912,54.359-10.508,54.359-10.508
		s-10.976,30.079-5.708,61.513c0,15.248,12.414,68.219,12.39,102.539C246.844,197.754,243.987,218.27,237.31,227.777z"/>
	<path fill="#EC1C24" d="M195.39,83.299c-1.909-4.298-4.791-3.355-6.682-0.498c-3.351,5.736-3.351,12.416-3.822,21.953
		c-0.024,2.853,0.94,13.334,2.857,18.13c1.438,3.351,3.824,2.854,5.708,0c0.974-1.914,2.383-6.709,3.355-14.804
		C198.223,95.69,196.807,86.151,195.39,83.299z"/>
	<path fill="#EC1C24" d="M141.008,190.107c-1.418,0.469-1.915,0.469-1.915,2.383c0,1.908,0.497,18.573,0.497,18.573
		c-0.497,1.467,0.941,1.941,2.829,0.969c4.794-3.351,6.206-8.095,6.682-12.86C150.067,188.69,142.419,189.135,141.008,190.107z"/>
	<path fill="#EC1C24" d="M133.354,134.304c0,1.44-1.885,9.063-1.885,10.479c-0.474,1.939-0.474,2.884,0.887,2.358
		c0.974-0.472,2.391-0.94,3.358-1.89c0.966-0.493,0.966-1.908,0.966-1.908s-1.413-8.1-1.909-9.539
		C134.326,131.894,133.354,132.892,133.354,134.304z"/>
	<path fill="#EC1C24" d="M67.546,171.534c0,1.44-1.884,10.504-1.884,11.916c0,1.418,0.467,2.358,1.41,1.885
		c0.972-0.467,2.383-1.411,3.355-1.885c0.967-0.943,0.967-1.908,0.967-1.908s-1.91-9.067-2.382-10.506
		C68.515,169.144,68.044,170.092,67.546,171.534z"/>
	<path fill="#EC1C24" d="M113.338,216.328c0,1.441-2.854,14.805-2.854,16.216c0,1.939-0.496,3.355,1.414,1.891
		c0.973,0,4.299-1.891,5.266-2.831c0.972-0.471,0.972-2.41,0.972-2.41s-2.882-11.893-3.355-13.361
		C114.281,213.945,113.338,214.89,113.338,216.328z"/>
	<path fill="#EC1C24" d="M240.66,25.582c0,0-31.021,12.42-54.359,10.508c-44.851-3.8-49.621-23.369-56.298-23.369
		c-7.155,0-11.448,19.569-56.273,23.369c-22.926,1.912-54.39-10.978-54.39-10.978s10.978,30.051,5.714,61.513
		c0,15.747-12.394,68.19-12.394,103.009c0.499,8.12,3.357,28.611,10.033,38.144c17.186,30.051,56.301,35.315,70.577,42.94
		c20.515,8.566,36.732,23.864,36.732,23.864s16.216-15.244,36.728-23.864c14.331-7.601,53.416-12.865,70.579-42.94
		c6.677-9.508,9.534-30.023,10.032-38.144c0.024-34.32-12.39-87.291-12.39-102.539C229.685,55.661,240.66,25.582,240.66,25.582z
		 M167.698,90.45c0.474-0.499,6.182-3.854,7.155-4.299c1.464-0.965,1.908-0.498,1.464,1.417c0,0.969,0,3.355,0,3.822
		c0,0.5-0.499,40.557-0.499,41.97c0,1.417,0.499,2.833,0.973,3.326c0.498,0.473,0.969,2.389-0.474,2.857
		c-0.966,0.497-7.647,4.296-8.59,4.768c-0.973,0.496-1.914-0.472-0.973-1.886c0.973-1.411,1.441-3.826,1.441-4.767
		c0-1.417,0-38.145,0-40.061c0-1.908-1.441-4.292-1.885-5.708C166.287,91.391,167.252,90.924,167.698,90.45z M163.902,95.217
		c0,1.416,0.471,10.481,0.471,11.446c0,0.943-1.411,1.915-1.909,0.943c-0.475-1.439-1.417-3.326-2.385-4.294
		c-0.972-0.97-2.388-0.496-3.354,0c-0.973,0.968-0.474,0.501-0.474,1.91c0,1.44,0.474,36.234,0.474,38.145
		c0,1.885,0.967,4.3,1.416,5.24c0.498,0.944,1.441,1.441-0.474,2.857c-1.915,0.969-5.71,3.351-6.68,3.8
		c-0.969,0.493-1.912,0.493-1.413-1.417c0.469-1.885,0.469-3.355,0.966-4.767c0-1.915,0-37.675,0-39.116
		c0-1.44-0.497-2.854-1.914-2.383c-1.412,0.942-3.824,4.769-4.291,9.064c-0.477,1.886-1.915,2.386-1.915,0.474
		c0-1.89,0-7.155,0-9.064c0.497-2.833,0.971-2.833,1.915-3.775c1.411-0.968,16.213-10.03,17.654-10.475
		C163.428,92.809,163.902,93.806,163.902,95.217z M138.097,150.969c-0.444-1.417-1.417-0.943-1.417-0.943s-5.211,3.326-6.178,3.798
		c-0.948,0.496-1.44,0.943-1.44,1.91c0,0.973-0.948,6.184-0.948,7.181c0,1.411,0.472,2.854,1.44,3.351
		c0.948,0.473,0.474,1.416,0,1.89c-0.944,0.469-7.621,4.291-8.591,5.235c-1.417,0.997-1.913-0.915-0.444-1.465
		c0.469-0.943,1.886-3.824,2.383-6.208c0.474-2.382,10.48-54.364,10.98-56.746c0.469-2.384,1.885-3.326,2.382-0.5
		c0.469,2.882,9.035,41.997,9.511,43.438c0.497,1.442,1.438,3.355,1.91,3.824c0.94,0.973,0.447,0.973-0.472,1.885
		c-0.971,0.943-5.265,2.882-7.179,4.299c-1.938,1.465-0.966-2.357-0.966-2.828c0-0.972,0-1.915,0-2.88
		C139.069,154.791,138.593,152.407,138.097,150.969z M118.135,46.098c4.27-2.383,16.191-10.037,19.073-11.449
		c1.409-0.994,2.382-1.44,2.382,0.472c0,1.884,0,4.766,0,5.712c0,0.943-0.973,1.412-1.913,0.968
		c-0.469-0.968-3.351-0.968-4.295-0.499c-1.417,0.499-4.296,1.916-4.772,2.414c0,1.411,0,13.801,0,14.774
		c1.917-0.476,4.3-1.914,7.157-2.384c2.851-0.498,8.123-3.8,9.063-4.798c0.944-0.94,2.41-1.414,1.441,1.442
		c-0.497,2.857-3.355,8.097-9.539,8.097c-6.182,0.469-6.182,0.969-7.646,1.887c-0.943,0.496-0.943,1.44-0.943,2.408
		c0,0.94,0,16.689,0,17.659c0,0.943,0.943,0.943,1.885,0.469c0.968-0.469,9.065-5.709,12.392-13.358
		c0.942-2.832,1.915-1.89,1.915-0.474c0,1.417-0.477,6.652-0.477,7.602c-0.496,1.438-0.496,2.406-3.823,4.292
		c-2.382,1.416-16.189,10.06-17.653,10.479c-1.418,0.998-1.892,0-1.418-1.414c0.498-0.943,0.498-1.388,0.498-2.361
		c0-0.94,0-34.313,0-36.228c0-1.44-0.498-2.857-1.915-3.355C117.637,48.006,116.664,47.012,118.135,46.098z M113.338,151.022
		c0.499-1.418,3.355-22.431,3.825-23.845c0.444-1.411-0.499-3.351-0.967-3.796c-0.497-0.971-1.417-1.442,0-2.388
		c1.411-0.968,6.681-3.824,7.149-4.294c0.973-0.474,2.385,0,1.441,1.412c-0.498,1.47-1.91,7.178-2.406,9.065
		c-0.478,1.414-9.043,48.647-9.511,50.564c-0.497,1.938-1.417,2.855-2.387,0.498c-0.968-2.859-9.536-38.644-10.008-40.527
		c-0.499-1.915-1.441-2.415-1.91-2.859c0-1.021-0.974-1.962,0.942-3.402c0.968-0.498,6.184-3.8,7.148-4.273
		c0.973-0.499,1.915-0.997,1.441,0.942c-0.498,1.914-0.498,3.827-0.498,5.269c0,1.413,4.298,17.634,4.298,18.574
		C112.373,152.96,112.87,152.96,113.338,151.022z M86.145,65.615c0,0,6.213-3.8,7.155-4.769c0.943-0.473,1.91-0.473,1.439,1.467
		c-0.496,1.884-0.97,3.302-0.97,4.267c0,1.441,0,11.925,0,11.925l9.509-5.712c0,0,0-9.064,0-10.479c0-1.467-0.967-3.849-1.887-4.798
		c-0.94-0.94-0.94-1.41,0.474-2.382c1.413-0.944,5.238-3.326,6.682-4.294c0.944-0.473,1.912-0.473,0.944,1.91
		c-0.498,1.439-0.498,3.355-0.498,4.766c0,1.442,0,32.436,0,33.875c0,1.418,0,2.415,1.438,3.355
		c0.968,0.944,0.968,1.887-0.498,2.853c-1.44,0.974-4.296,2.859-5.714,3.355c-0.966,0.498-1.908,0.498-1.41-1.913
		c0.469-2.384,0.943-4.295,0.943-6.677c0-2.857,0-11.922,0-13.363c0-1.914,0.467-2.384-1.441-1.416
		c-0.944,0.496-6.184,3.798-7.602,4.767c-0.965,0.498-0.965,0.973-0.965,1.441c0,0.945,0,16.665,0,17.659
		c0,0.944,0.469,1.885,1.409,2.361c0.974,0.496,1.418,1.409-0.469,2.406c-1.439,0.944-5.708,3.823-6.681,4.767
		c-0.966,0.474-1.44-0.469-0.966-1.908c0.469-1.442,0.966-2.386,0.966-5.265c0-2.361,0-31.937,0-33.379
		c0-1.415-1.44-2.857-1.909-3.355C85.7,67.553,84.732,67.079,86.145,65.615z M58.007,75.647l19.073-11.45
		c0,0,2.383-1.412,2.383,0.974c0,2.382,0,13.358,0,13.358s-0.469,2.854-1.909,0c-0.973-2.386-1.886-4.793-3.355-5.736
		c-1.412-0.94-1.884-0.472-1.884,1.441c0,1.909,0,36.231,0,38.146c0,1.908,0.472,3.795,1.415,4.79
		c0.967,0.918,2.827,1.887,0.469,3.301c-1.884,1.469-8.094,4.766-8.094,4.766s-2.83,1.941-1.914-0.94
		c0.498-1.466,1.442-2.408,1.442-4.294c0-1.914,0-38.142,0-40.059c0-1.914-0.969-3.854-2.41-2.383
		c-0.94,0.944-2.855,7.178-4.765,14.774c-0.476,1.915-2.389,3.355-2.389,0.972c0-2.383-0.469-10.008-0.469-13.363
		C56.598,76.09,57.065,76.09,58.007,75.647z M53.218,208.652c-0.973,7.18-6.682,15.248-15.279,14.779
		c-8.591-0.446-14.301-4.771-13.854-12.368c0.497-7.646,7.649-8.121,9.09-7.646c1.414,0.497,6.682,2.407,5.217,5.709
		c-0.477,1.464-2.386-0.474-2.386-0.474s-4.772,0-3.8,3.355c0.969,3.355,4.295,4.768,6.186,4.768
		c3.847,0.496,9.063-3.803,8.12-10.008c-0.947-6.705-7.18-11.425-12.419-16.216c-5.161-4.268-8.986-11.396-8.517-19.516
		c0.471-4.771,4.3-10.507,10.479-11.477c4.772-0.471,5.715,0.97,8.098,1.414c2.409,0.499,5.266,0.499,6.682,0
		c1.441-0.941,2.883-1.885,2.409,0.997c-0.968,2.828-2.409,9.51-1.441,12.365c0.972,2.854,1.441,3.826,1.441,5.237
		c0,1.415-1.441-0.471-2.409-0.942c-0.946-0.944-2.388-1.939-3.355-2.407c-0.941-0.943-1.885-1.888-0.941-2.834
		c0.941-0.969,0.469-5.709-2.413-7.173c-3.795-1.892-10.476-0.476-10.949,5.234c-0.5,6.183,7.154,12.893,9.063,13.835
		C49.393,189.11,55.103,198.645,53.218,208.652z M80.905,197.754c-1.412,0.998-3.795,2.41-5.708,3.359
		c-1.911,0.94-1.418-2.361-1.418-2.859c0-0.5,0.474-1.914,0.474-2.857c0-0.94-0.967-3.351-1.417-4.767
		c-0.469-1.441-1.409-1.441-1.409-1.441s-5.268,3.355-6.213,3.825c-0.944,0.498-0.944,0.942-0.944,1.442
		c0,0.94-0.94,6.657-0.94,7.598c0,0.968,1.416,2.41,2.83,2.882c0.968,0.469,0.968,1.412,0,1.886
		c-0.97,0.496-8.596,5.289-10.013,6.208c-1.465,0.94-1.963-1.441-1.465-1.912c0.476-0.994,1.442-2.855,1.917-5.239
		c0.443-2.412,10.475-57.217,10.948-59.629c0.498-2.385,1.909-3.823,2.383-0.468c0.499,2.88,11.472,47.208,11.949,48.617
		C82.819,195.841,81.878,197.258,80.905,197.754z M85.676,194.852c-0.974,0.491-1.44,0-1.44-1.442
		c0-1.417,0.496-44.328,0.496-45.796c0-1.412-1.439-2.854-1.913-3.351c0-0.896-0.474-1.837,0.943-2.806
		c0.97-0.496,7.155-4.298,8.596-4.771c1.412-0.493,2.826-0.942,1.886,1.441c-0.943,2.387-1.417,4.771-1.417,6.184
		c0,1.44-0.469,40.557-0.469,40.557s0,2.382,2.382,0.467c4.295-3.793,6.677-10.948,6.677-13.356c0.476-2.358,1.89-4.298,1.89-1.441
		c0,2.853,0,11.945-0.472,12.86c-0.498,0.997-0.498,1.471-1.442,1.938C98.066,187.693,90.419,191.992,85.676,194.852z
		 M127.669,246.851c-0.968,0.994-4.294,2.412-6.184,3.854c-2.407,0.911-1.466-2.859-1.466-3.355c0.499-0.968,0-2.859,0-3.8
		c0-0.997-0.444-2.882-0.941-4.792c-0.477-1.416-1.441-1.914-1.441-1.914s-7.625,4.765-8.595,5.24
		c-0.471,0.469-0.944,0.469-0.944,1.466c0,0.94-1.441,8.066-1.441,9.064c0,1.417,1.441,2.357,2.386,2.833
		c0.97,0.469,1.469,1.908,0.497,2.382c-0.941,0.498-10.007,5.736-10.974,6.677c-1.44,0.949-1.939-0.469-1.915-0.94
		c0.499-0.944,2.413-4.294,2.882-6.706c0.472-2.361,12.392-62.46,12.865-64.813c0.496-2.412,1.913-3.355,2.411-0.496
		c0.444,2.382,7.124,30.075,10.475,44.35c0.974,4.299,2.386,7.649,3.355,8.123C130.051,244.967,128.639,245.907,127.669,246.851z
		 M166.287,237.287c-1.441,1.914-6.682,6.682-10.98,4.271c-4.291-2.829-6.206-5.713-8.094-8.565
		c-1.468-3.331-5.265-11.422-5.738-12.864c-0.467-1.439-1.885-2.359-2.382,0c0,2.407,0,13.856,0,15.274
		c0,1.439,0.497,0.94,0.966,1.884c0.5,0.97,1.914,1.442-0.469,2.857c-1.913,1.414-4.299,2.856-5.708,3.355
		c-1.446,0.94-2.389,0-1.917-1.469c0.471-1.413,0-2.83,0-4.769c0-1.884,0-39.114,0-40.556c0-1.413,0-2.854-0.97-2.854
		c0-1.363-3.351-1.808,0-3.746c2.857-1.417,6.682-3.823,8.595-5.239c6.682-4.3,16.191,0,16.689,9.034
		c0.965,11.453-4.299,15.277-7.625,18.579c-1.914,1.933-1.914,2.882-1.414,3.847c0.474,0.973,7.153,14.805,9.507,17.159
		c2.385,2.412,5.716,2.856,7.625,1.916C166.287,234.435,167.728,235.403,166.287,237.287z M186.325,211.563
		c-1.908,0.918-5.239,2.851-6.208,3.8c-1.417,0.965-2.382-0.474-1.417-1.89c0.474-1.441,0.973-1.441,1.417-3.351
		c0.474-2.414,0-24.788,0-26.253c0-1.441,0-2.882-0.968,0c-0.97,2.385-4.296,15.717-4.77,16.689c-0.5,0.967-0.968,1.909-1.912,0
		c-0.94-1.441-4.77-8.567-5.216-9.511c-0.497-0.994-0.497,0-0.497,0.943c0,0.968,0,23.84,0,25.279c0,1.418,0.497,2.857,0.973,2.857
		c0.469,0.469,1.91,1.442,0.469,2.827c-1.885,1.471-7.15,4.299-8.095,4.768c-0.94,0.474-2.382,0-1.415-1.886
		c0.943-1.909,1.415-3.822,1.415-5.709c0-4.795-0.472-31.959,0-38.145c0-1.938-0.472-3.354-1.415-3.822
		c-1.466-1.417-3.878-2.361-1.939-3.302c1.417-0.974,4.772-3.355,6.214-3.824c1.411-0.476,1.411-0.476,2.383,0.996
		c0.47,0.942,6.184,10.475,6.184,11.418c0.498,0.474,1.439,1.442,1.908-0.497c0.498-1.911,5.265-20.039,5.714-21.456
		c0.494-0.968,1.412-1.441,2.386-2.384c0.965-0.967,2.882-1.44,3.822-2.383c0.968-0.474,1.441,0,1.441,0.942
		c0,1.44-0.474,4.767-0.474,6.652c0,1.443,0,39.612,0,41.499c0,1.439,0.474,2.857,0.942,3.355
		C188.241,210.123,187.768,210.619,186.325,211.563z M181.062,123.353c-1.912-7.178-1.912-10.973-2.386-16.689
		c0-4.291,0-27.662,12.39-31.016c6.186-1.911,10.041,6.68,10.483,10.035c1.466,10.008,3.351,27.194-4.298,41.025
		C192.983,134.802,183.419,130.058,181.062,123.353z M219.704,145.752c-1.417,3.8-8.094,20.041-9.067,22.925
		c-0.94,2.828-0.94,3.798-0.94,6.184c0,2.382,0,10.973,0,13.83c0,2.859,0.474,3.355,0.94,4.768c0.974,0.998,0.974,2.412-0.467,2.882
		c-1.915,1.414-5.713,3.824-6.682,4.296c-1.417,0.969-2.859,0.478-1.915-1.884c1.471-3.355,1.471-2.882,1.471-4.796
		c0-2.382,0-16.214,0-18.099c0-1.917-1.913-6.682-2.887-8.599c-0.968-1.884-3.795-7.646-4.768-9.532
		c-0.965-1.416-2.383-2.413-3.351-2.857c-0.974-1.021-0.974-1.465,0-2.436c1.412-0.969,6.184-3.826,7.649-4.767
		c1.418-0.969,1.885,0,1.418,1.414c-0.502,1.411,0.467,5.238,0.965,6.677c0.474,1.416,2.828,6.682,3.355,7.156
		c0.469,0.966,0.943,1.909,2.384,0c1.411-2.385,6.182-17.162,7.15-19.547c0.497-2.406-0.469-4.768-1.442-5.708
		c-0.942-0.973-2.384-1.915-0.942-3.355c1.916-1.412,2.858-2.41,5.24-0.943C221.643,136.193,221.167,141.457,219.704,145.752z
		 M225.861,111.88c-1.416,0.471-1.914-0.972-2.857-2.411c-0.474-1.413-10.479-23.84-10.479-23.84s-1.442-2.384-1.442,1.417
		c0,3.824-0.497,21.479-0.497,23.363c0,1.917,0.973,2.857,1.441,3.355c0.94,0.968,1.417,1.917,0,2.857
		c-1.441,0.915-4.792,2.854-5.736,3.351c-1.414,0.498-1.89,0.498-1.414-2.383c0.498-2.408,0.967-4.299,1.414-6.682
		c0-2.384,0.501-34.818,0.501-36.728c0-2.382-0.501-4.299-1.417-4.299c-1.885,0.5-2.358-0.444-0.474-1.86
		c1.441-0.942,2.382-1.886,3.829-2.353c1.441-0.498,2.382-1.94,4.27,1.884c1.909,3.824,5.265,11.893,5.738,12.89
		c0.94,1.885,1.884,1.885,1.884-0.499c0-3.355,0-19.072,0-21.454c0-2.384-0.973-3.355-1.884-4.767
		c-0.498-0.973-2.415-2.415-0.498-3.355c1.409-0.943,9.532-4.768,8.091,10.948c-0.469,5.716,0,47.209,0,48.153
		C226.329,110.908,227.273,111.88,225.861,111.88z"/>
	<path fill="#EC1C24" d="M247.42,120.994c-2.384-12.89-4.298-23.838-4.769-31.961c-1.913-22.897,0-43.385,2.882-50.091
		c4.271-10.008,4.744-16.187,1.887-19.068c-1.442-1.417-2.384-1.888-4.298-1.888c-2.384,0-5.238,0.94-9.061,2.382
		c-0.972,0.446-2.388,0.92-3.8,1.418c-17.662,6.678-31.99,8.096-41.025,8.096c-2.384,0-4.771-0.474-7.156-0.474
		c-25.28-2.88-36.253-12.893-42.935-19.071c-3.825-2.856-6.213-5.24-9.065-5.24c-3.355,0-5.713,1.886-9.063,5.24
		c-6.682,6.179-17.662,16.243-42.913,19.071c-2.387,0.474-4.77,0.474-7.178,0.474c-8.565,0-22.871-1.418-40.53-8.594
		c-1.44-0.446-2.854-0.92-3.822-1.414c-3.824-1.417-6.682-2.388-9.067-2.388c-1.91,0-3.323,0.946-4.294,1.917
		c-2.882,3.353-2.386,9.061,1.886,19.07c2.408,6.182,4.794,27.195,2.882,50.092c-0.474,8.092-2.384,19.07-4.768,31.96
		c-3.328,21.43-8.122,48.151-8.122,71.521c0,8.118,3.326,28.137,10.506,38.643c14.775,24.782,41.469,34.29,61.015,40.996
		c5.268,1.886,10.008,3.777,13.358,5.241c14.803,6.65,22.429,13.332,28.166,18.128c4.742,4.299,8.093,6.652,11.893,6.652
		c3.825,0,7.181-2.354,12-5.655c5.733-4.795,13.357-11.501,28.136-18.158c3.326-1.91,8.095-3.351,13.358-5.213
		c20.016-6.704,46.74-16.243,61.039-41.023c7.654-10.98,10.482-31.021,10.98-39.112C255.541,169.144,251.242,142.455,247.42,120.994
		z M242.652,230.19c-18.104,31.488-57.24,38.144-73.458,45.792c-26.722,12.365-31.463,24.312-39.113,24.312
		c-7.651,0-12.39-11.946-39.114-24.312c-16.189-7.648-55.303-14.304-73.431-45.792c-7.154-10.008-10.009-29.579-10.506-38.145
		c0-36.732,11.448-81.58,12.888-103.509c1.442-21.957,0-43.382-3.326-51.035c-3.355-7.15-5.267-14.329-2.384-17.157
		c2.828-2.882,7.125-0.524,15.718,2.828c19.546,7.179,36.728,8.594,49.592,7.179c37.676-4.299,43.858-24.339,51.508-24.339
		c7.178,0,13.854,20.041,51.503,24.339c11.922,0.944,29.083-0.47,48.647-7.625c8.57-2.853,12.396-5.264,15.247-2.382
		c2.857,2.882,0.974,9.537-2.382,17.157c-3.351,7.624-4.768,29.078-3.351,51.035c1.44,21.929,12.89,67.251,12.445,103.509
		C252.684,200.611,249.804,220.183,242.652,230.19z"/>
	<path fill="#EC1C24" d="M240.69,88.537c-1.417-21.957,0-43.411,3.351-51.035c3.355-7.62,5.239-14.275,2.382-17.157
		c-2.851-2.882-6.677-0.471-15.247,2.382c-19.564,7.155-36.726,8.569-48.647,7.625c-37.648-4.299-44.325-24.339-51.503-24.339
		c-7.649,0-13.832,20.041-51.508,24.339c-12.864,1.415-30.046,0-49.592-7.179c-8.593-3.353-12.89-5.71-15.718-2.828
		c-2.883,2.828-0.972,10.007,2.384,17.157c3.326,7.653,4.769,29.078,3.326,51.035C18.478,110.466,7.03,155.313,7.03,192.046
		c0.497,8.565,3.352,28.137,10.506,38.145c18.128,31.488,57.241,38.144,73.431,45.792c26.725,12.365,31.463,24.312,39.114,24.312
		c7.65,0,12.392-11.946,39.113-24.312c16.218-7.648,55.354-14.304,73.458-45.792c7.152-10.008,10.032-29.579,10.483-38.145
		C253.579,155.788,242.13,110.466,240.69,88.537z M242.155,229.247c-14.306,24.31-40.557,33.373-59.627,40.03
		c-5.736,1.909-10.032,3.351-13.833,5.24c-14.772,7.173-22.896,13.83-28.606,18.598c-4.321,3.355-7.179,5.709-10.037,5.709
		c-2.851,0-5.732-1.885-10.031-5.709c-5.211-4.768-13.807-11.425-28.582-18.598c-3.822-1.89-8.619-3.331-13.859-5.24
		c-19.542-6.657-45.767-15.721-59.599-40.03c-6.208-9.064-9.563-27.691-10.035-37.201c0-22.927,4.298-49.62,8.097-71.076
		c2.385-12.89,4.297-24.337,4.794-32.433c1.414-21.458,0-43.411-3.354-51.533c-4.296-10.476-3.825-14.277-2.411-15.716
		c0.971-0.474,1.468-0.943,2.411-0.943c1.912,0,4.271,1.414,7.678,1.938c0.97,0.474,2.408,0.944,3.822,1.416
		c18.106,6.653,32.881,8.096,41.944,8.096c2.882,0,5.265-0.498,7.649-0.498c25.752-2.832,37.674-13.363,44.351-19.544
		c3.354-2.883,5.241-4.77,7.154-4.77c1.941,0,4.324,1.939,7.177,4.77c6.682,6.181,18.104,16.712,44.327,19.544
		c2.411,0.498,5.269,0.498,7.652,0.498c9.533,0,23.84-1.442,41.969-8.096c1.41-0.472,2.827-0.942,3.8-1.416
		c3.823-1.44,6.205-2.408,8.093-2.408c0.972,0,1.915,0.494,2.411,0.968c1.413,1.44,2.383,5.238-2.411,15.718
		c-3.353,8.096-4.767,30.053-3.353,51.529c0.495,8.07,2.409,19.518,4.791,32.382c3.326,21.484,8.099,48.206,8.099,71.079
		C252.186,201.58,248.835,220.183,242.155,229.247z"/>
	<path fill="#FFFFFF" d="M58.458,92.335c1.909-7.597,3.824-13.83,4.765-14.774c1.441-1.471,2.41,0.469,2.41,2.383
		c0,1.917,0,38.145,0,40.059c0,1.886-0.944,2.828-1.442,4.294c-0.916,2.882,1.914,0.94,1.914,0.94s6.21-3.297,8.094-4.766
		c2.358-1.414,0.498-2.383-0.469-3.301c-0.943-0.995-1.415-2.882-1.415-4.79c0-1.914,0-36.236,0-38.146
		c0-1.913,0.472-2.382,1.884-1.441c1.47,0.943,2.383,3.351,3.355,5.736c1.44,2.854,1.909,0,1.909,0s0-10.977,0-13.358
		c0-2.386-2.383-0.974-2.383-0.974l-19.073,11.45c-0.942,0.442-1.409,0.442-2.406,4.296c0,3.355,0.469,10.98,0.469,13.363
		C56.07,95.69,57.983,94.25,58.458,92.335z"/>
	<path fill="#FFFFFF" d="M86.096,67.079c0.469,0.498,1.909,1.94,1.909,3.355c0,1.442,0,31.018,0,33.379
		c0,2.879-0.497,3.822-0.966,5.265c-0.475,1.439,0,2.382,0.966,1.908c0.973-0.943,5.241-3.822,6.681-4.767
		c1.887-0.997,1.442-1.91,0.469-2.406c-0.94-0.477-1.409-1.417-1.409-2.361c0-0.994,0-16.714,0-17.659c0-0.469,0-0.943,0.965-1.441
		c1.418-0.969,6.657-4.271,7.602-4.767c1.908-0.968,1.441-0.498,1.441,1.416c0,1.441,0,10.506,0,13.363
		c0,2.382-0.475,4.293-0.943,6.677c-0.498,2.411,0.444,2.411,1.41,1.913c1.418-0.496,4.273-2.382,5.714-3.355
		c1.466-0.966,1.466-1.908,0.498-2.853c-1.438-0.94-1.438-1.938-1.438-3.355c0-1.439,0-32.433,0-33.875c0-1.41,0-3.326,0.498-4.766
		c0.968-2.383,0-2.383-0.944-1.91c-1.443,0.968-5.269,3.35-6.682,4.294c-1.414,0.972-1.414,1.441-0.474,2.382
		c0.92,0.949,1.887,3.331,1.887,4.798c0,1.415,0,10.479,0,10.479l-9.509,5.712c0,0,0-10.483,0-11.925
		c0-0.965,0.474-2.383,0.97-4.267c0.471-1.939-0.496-1.939-1.439-1.467c-0.942,0.969-7.155,4.769-7.155,4.769
		C84.732,67.079,85.7,67.553,86.096,67.079z"/>
	<path fill="#FFFFFF" d="M119.546,48.452c1.417,0.498,1.915,1.915,1.915,3.355c0,1.915,0,35.287,0,36.228
		c0,0.974,0,1.418-0.498,2.361c-0.474,1.414,0,2.412,1.418,1.414c1.464-0.42,15.271-9.063,17.653-10.479
		c3.327-1.886,3.327-2.854,3.823-4.292c0-0.949,0.477-6.185,0.477-7.602c0-1.416-0.973-2.358-1.915,0.474
		c-3.326,7.649-11.424,12.89-12.392,13.358c-0.941,0.475-1.885,0.475-1.885-0.469c0-0.97,0-16.719,0-17.659
		c0-0.968,0-1.912,0.943-2.408c1.465-0.918,1.465-1.418,7.646-1.887c6.184,0,9.042-5.239,9.539-8.097
		c0.969-2.856-0.497-2.383-1.441-1.442c-0.94,0.998-6.213,4.3-9.063,4.798c-2.857,0.47-5.24,1.908-7.157,2.384
		c0-0.974,0-13.363,0-14.774c0.477-0.498,3.355-1.915,4.772-2.414c0.944-0.469,3.826-0.469,4.295,0.499
		c0.94,0.444,1.913-0.024,1.913-0.968c0-0.946,0-3.828,0-5.712c0-1.912-0.973-1.466-2.382-0.472
		c-2.882,1.412-14.804,9.066-19.073,11.449C116.664,47.012,117.637,48.006,119.546,48.452z"/>
	<path fill="#FFFFFF" d="M42.238,185.286c-1.909-0.942-9.563-7.652-9.063-13.835c0.474-5.71,7.154-7.126,10.949-5.234
		c2.882,1.464,3.354,6.204,2.413,7.173c-0.943,0.946,0,1.891,0.941,2.834c0.968,0.468,2.409,1.463,3.355,2.407
		c0.968,0.472,2.409,2.357,2.409,0.942c0-1.411-0.47-2.384-1.441-5.237c-0.968-2.855,0.474-9.537,1.441-12.365
		c0.474-2.882-0.968-1.938-2.409-0.997c-1.416,0.499-4.272,0.499-6.682,0c-2.383-0.444-3.325-1.885-8.098-1.414
		c-6.179,0.97-10.008,6.705-10.479,11.477c-0.47,8.12,3.355,15.248,8.517,19.516c5.239,4.791,11.472,9.511,12.419,16.216
		c0.942,6.205-4.273,10.504-8.12,10.008c-1.891,0-5.217-1.412-6.186-4.768c-0.973-3.355,3.8-3.355,3.8-3.355
		s1.909,1.938,2.386,0.474c1.465-3.302-3.803-5.212-5.217-5.709c-1.44-0.475-8.593,0-9.09,7.646
		c-0.446,7.597,5.264,11.922,13.854,12.368c8.598,0.469,14.307-7.6,15.279-14.779C55.103,198.645,49.393,189.11,42.238,185.286z"/>
	<path fill="#FFFFFF" d="M69.929,145.781c-0.474-3.355-1.885-1.917-2.383,0.468c-0.474,2.412-10.505,57.217-10.948,59.629
		c-0.475,2.384-1.441,4.245-1.917,5.239c-0.498,0.471,0,2.853,1.465,1.912c1.417-0.919,9.043-5.712,10.013-6.208
		c0.968-0.474,0.968-1.417,0-1.886c-1.414-0.472-2.83-1.914-2.83-2.882c0-0.94,0.94-6.657,0.94-7.598c0-0.5,0-0.944,0.944-1.442
		c0.945-0.47,6.213-3.825,6.213-3.825s0.94,0,1.409,1.441c0.45,1.416,1.417,3.826,1.417,4.767c0,0.943-0.474,2.357-0.474,2.857
		c0,0.498-0.493,3.8,1.418,2.859c1.913-0.949,4.296-2.361,5.708-3.359c0.974-0.496,1.914-1.913,0.974-3.355
		C81.401,192.989,70.428,148.661,69.929,145.781z M70.428,183.45c-0.973,0.474-2.384,1.418-3.355,1.885
		c-0.943,0.474-1.41-0.467-1.41-1.885c0-1.412,1.884-10.476,1.884-11.916c0.498-1.442,0.969-2.391,1.467-0.498
		c0.472,1.438,2.382,10.506,2.382,10.506S71.395,182.507,70.428,183.45z"/>
	<path fill="#FFFFFF" d="M102.834,183.397c0.472-0.915,0.472-10.008,0.472-12.86c0-2.856-1.414-0.917-1.89,1.441
		c0,2.408-2.382,9.563-6.677,13.356c-2.382,1.915-2.382-0.467-2.382-0.467s0.469-39.116,0.469-40.557
		c0-1.412,0.474-3.797,1.417-6.184c0.94-2.384-0.474-1.935-1.886-1.441c-1.44,0.473-7.626,4.274-8.596,4.771
		c-1.417,0.969-0.943,1.91-0.943,2.806c0.474,0.496,1.913,1.938,1.913,3.351c0,1.468-0.496,44.379-0.496,45.796
		c0,1.442,0.467,1.934,1.44,1.442c4.743-2.859,12.39-7.158,15.716-9.517C102.336,184.868,102.336,184.395,102.834,183.397z"/>
	<path fill="#FFFFFF" d="M108.098,128.12c0.474-1.939-0.469-1.441-1.441-0.942c-0.965,0.474-6.181,3.775-7.148,4.273
		c-1.916,1.44-0.942,2.382-0.942,3.402c0.469,0.444,1.411,0.944,1.91,2.859c0.472,1.884,9.04,37.668,10.008,40.527
		c0.97,2.357,1.89,1.439,2.387-0.498c0.468-1.917,9.033-49.15,9.511-50.564c0.496-1.888,1.908-7.596,2.406-9.065
		c0.943-1.412-0.469-1.886-1.441-1.412c-0.469,0.47-5.738,3.326-7.149,4.294c-1.417,0.945-0.497,1.417,0,2.388
		c0.468,0.445,1.411,2.385,0.967,3.796c-0.47,1.414-3.326,22.427-3.825,23.845c-0.468,1.938-0.965,1.938-1.44,0.94
		c0-0.94-4.298-17.161-4.298-18.574C107.6,131.947,107.6,130.034,108.098,128.12z"/>
	<path fill="#FFFFFF" d="M140.034,161.917c1.914-1.417,6.208-3.355,7.179-4.299c0.919-0.912,1.412-0.912,0.472-1.885
		c-0.472-0.469-1.413-2.382-1.91-3.824c-0.476-1.441-9.042-40.557-9.511-43.438c-0.497-2.826-1.913-1.884-2.382,0.5
		c-0.5,2.382-10.507,54.364-10.98,56.746c-0.497,2.384-1.914,5.265-2.383,6.208c-1.469,0.55-0.973,2.462,0.444,1.465
		c0.97-0.944,7.646-4.767,8.591-5.235c0.474-0.474,0.948-1.417,0-1.89c-0.969-0.496-1.44-1.939-1.44-3.351
		c0-0.997,0.948-6.208,0.948-7.181c0-0.967,0.492-1.414,1.44-1.91c0.967-0.472,6.178-3.798,6.178-3.798s0.973-0.474,1.417,0.943
		c0.496,1.438,0.972,3.822,0.972,5.24c0,0.965,0,1.908,0,2.88C139.069,159.56,138.097,163.382,140.034,161.917z M135.714,145.252
		c-0.968,0.949-2.385,1.418-3.358,1.89c-1.36,0.525-1.36-0.419-0.887-2.358c0-1.416,1.885-9.039,1.885-10.479
		c0-1.412,0.973-2.41,1.417-0.499c0.496,1.439,1.909,9.539,1.909,9.539S136.68,144.759,135.714,145.252z"/>
	<path fill="#FFFFFF" d="M128.639,244.022c-0.97-0.474-2.382-3.824-3.355-8.123c-3.351-14.274-10.03-41.968-10.475-44.35
		c-0.498-2.859-1.915-1.916-2.411,0.496c-0.474,2.353-12.394,62.451-12.865,64.813c-0.469,2.412-2.383,5.762-2.882,6.706
		c-0.024,0.472,0.475,1.89,1.915,0.94c0.967-0.94,10.032-6.179,10.974-6.677c0.972-0.474,0.473-1.913-0.497-2.382
		c-0.944-0.476-2.386-1.416-2.386-2.833c0-0.998,1.441-8.124,1.441-9.064c0-0.997,0.474-0.997,0.944-1.466
		c0.97-0.476,8.595-5.24,8.595-5.24s0.965,0.498,1.441,1.914c0.497,1.91,0.941,3.795,0.941,4.792c0,0.94,0.499,2.832,0,3.8
		c0,0.496-0.941,4.267,1.466,3.355c1.89-1.441,5.216-2.859,6.184-3.854C128.639,245.907,130.051,244.967,128.639,244.022z
		 M117.163,231.604c-0.967,0.94-4.293,2.831-5.266,2.831c-1.91,1.465-1.414,0.049-1.414-1.891c0-1.411,2.854-14.774,2.854-16.216
		c0-1.438,0.943-2.383,1.441-0.496c0.474,1.469,3.355,13.361,3.355,13.361S118.135,231.133,117.163,231.604z"/>
	<path fill="#FFFFFF" d="M142.419,108.056c0,1.909,0,7.175,0,9.064c0,1.912,1.438,1.412,1.915-0.474
		c0.467-4.296,2.879-8.122,4.291-9.064c1.417-0.472,1.914,0.942,1.914,2.383c0,1.441,0,37.201,0,39.116
		c-0.497,1.411-0.497,2.882-0.966,4.767c-0.499,1.91,0.444,1.91,1.413,1.417c0.97-0.449,4.765-2.831,6.68-3.8
		c1.915-1.416,0.972-1.913,0.474-2.857c-0.449-0.94-1.416-3.355-1.416-5.24c0-1.91-0.474-36.704-0.474-38.145
		c0-1.409-0.499-0.942,0.474-1.91c0.967-0.496,2.383-0.97,3.354,0c0.968,0.968,1.91,2.854,2.385,4.294
		c0.498,0.972,1.909,0,1.909-0.943c0-0.965-0.471-10.03-0.471-11.446c0-1.411-0.474-2.408-1.913-1.411
		c-1.441,0.444-16.243,9.507-17.654,10.475C143.39,105.223,142.916,105.223,142.419,108.056z"/>
	<path fill="#FFFFFF" d="M168.197,137.659c0,0.94-0.469,3.355-1.441,4.767c-0.941,1.414,0,2.382,0.973,1.886
		c0.942-0.472,7.624-4.271,8.59-4.768c1.442-0.469,0.972-2.385,0.474-2.857c-0.474-0.493-0.973-1.909-0.973-3.326
		c0-1.413,0.499-41.47,0.499-41.97c0-0.467,0-2.854,0-3.822c0.444-1.915,0-2.382-1.464-1.417c-0.974,0.444-6.682,3.8-7.155,4.299
		c-0.446,0.474-1.411,0.94-1.387,1.44c0.443,1.416,1.885,3.8,1.885,5.708C168.197,99.515,168.197,136.242,168.197,137.659z"/>
	<path fill="#FFFFFF" d="M197.251,126.708c7.648-13.831,5.764-31.018,4.298-41.025c-0.442-3.355-4.298-11.946-10.483-10.035
		c-12.39,3.354-12.39,26.725-12.39,31.016c0.474,5.717,0.474,9.512,2.386,16.689C183.419,130.058,192.983,134.802,197.251,126.708z
		 M187.743,122.884c-1.917-4.796-2.882-15.277-2.857-18.13c0.472-9.537,0.472-16.217,3.822-21.953
		c1.891-2.857,4.772-3.8,6.682,0.498c1.417,2.853,2.833,12.392,1.417,24.781c-0.973,8.095-2.382,12.89-3.355,14.804
		C191.568,125.737,189.182,126.234,187.743,122.884z"/>
	<path fill="#FFFFFF" d="M226.329,61.315c1.441-15.716-6.682-11.892-8.091-10.948c-1.917,0.94,0,2.383,0.498,3.355
		c0.911,1.411,1.884,2.383,1.884,4.767c0,2.382,0,18.099,0,21.454c0,2.384-0.943,2.384-1.884,0.499
		c-0.474-0.997-3.829-9.065-5.738-12.89c-1.888-3.824-2.828-2.382-4.27-1.884c-1.447,0.467-2.388,1.41-3.829,2.353
		c-1.885,1.416-1.411,2.36,0.474,1.86c0.916,0,1.417,1.917,1.417,4.299c0,1.909-0.501,34.344-0.501,36.728
		c-0.447,2.383-0.916,4.273-1.414,6.682c-0.476,2.881,0,2.881,1.414,2.383c0.944-0.496,4.295-2.436,5.736-3.351
		c1.417-0.94,0.94-1.89,0-2.857c-0.469-0.498-1.441-1.438-1.441-3.355c0-1.885,0.497-19.539,0.497-23.363
		c0-3.801,1.442-1.417,1.442-1.417s10.006,22.427,10.479,23.84c0.943,1.439,1.441,2.882,2.857,2.411
		c1.412,0,0.469-0.972,0.469-2.411C226.329,108.524,225.861,67.031,226.329,61.315z"/>
	<path fill="#FFFFFF" d="M164.372,235.403c-1.909,0.94-5.24,0.496-7.625-1.916c-2.354-2.354-9.033-16.187-9.507-17.159
		c-0.5-0.965-0.5-1.914,1.414-3.847c3.326-3.302,8.59-7.126,7.625-18.579c-0.498-9.034-10.008-13.334-16.689-9.034
		c-1.913,1.416-5.737,3.822-8.595,5.239c-3.351,1.938,0,2.383,0,3.746c0.97,0,0.97,1.44,0.97,2.854c0,1.441,0,38.672,0,40.556
		c0,1.938,0.471,3.355,0,4.769c-0.472,1.469,0.471,2.409,1.917,1.469c1.409-0.499,3.795-1.941,5.708-3.355
		c2.383-1.415,0.969-1.888,0.469-2.857c-0.469-0.943-0.966-0.444-0.966-1.884c0-1.418,0-12.867,0-15.274
		c0.497-2.359,1.915-1.439,2.382,0c0.474,1.442,4.271,9.533,5.738,12.864c1.888,2.853,3.803,5.736,8.094,8.565
		c4.299,2.41,9.539-2.357,10.98-4.271C167.728,235.403,166.287,234.435,164.372,235.403z M142.419,212.032
		c-1.888,0.973-3.326,0.498-2.829-0.969c0,0-0.497-16.665-0.497-18.573c0-1.914,0.497-1.914,1.915-2.383
		c1.411-0.973,9.059-1.417,8.093,9.064C148.625,203.938,147.213,208.682,142.419,212.032z"/>
	<path fill="#FFFFFF" d="M186.325,205.824c0-1.887,0-40.056,0-41.499c0-1.886,0.474-5.212,0.474-6.652
		c0-0.942-0.474-1.416-1.441-0.942c-0.94,0.942-2.857,1.416-3.822,2.383c-0.974,0.942-1.892,1.416-2.386,2.384
		c-0.449,1.417-5.216,19.545-5.714,21.456c-0.469,1.939-1.41,0.971-1.908,0.497c0-0.943-5.714-10.476-6.184-11.418
		c-0.972-1.472-0.972-1.472-2.383-0.996c-1.441,0.469-4.797,2.851-6.214,3.824c-1.938,0.94,0.474,1.885,1.939,3.302
		c0.943,0.469,1.415,1.885,1.415,3.822c-0.472,6.186,0,33.35,0,38.145c0,1.887-0.472,3.8-1.415,5.709
		c-0.967,1.886,0.475,2.359,1.415,1.886c0.944-0.469,6.21-3.297,8.095-4.768c1.441-1.385,0-2.358-0.469-2.827
		c-0.476,0-0.973-1.439-0.973-2.857c0-1.439,0-24.312,0-25.279c0-0.943,0-1.938,0.497-0.943c0.446,0.943,4.275,8.069,5.216,9.511
		c0.944,1.909,1.412,0.967,1.912,0c0.474-0.973,3.8-14.305,4.77-16.689c0.968-2.882,0.968-1.441,0.968,0
		c0,1.465,0.474,23.839,0,26.253c-0.444,1.909-0.943,1.909-1.417,3.351c-0.965,1.416,0,2.854,1.417,1.89
		c0.969-0.949,4.3-2.882,6.208-3.8c1.442-0.944,1.916-1.44,0.942-2.384C186.799,208.682,186.325,207.264,186.325,205.824z"/>
	<path fill="#FFFFFF" d="M217.817,133.36c-2.382-1.467-3.324-0.469-5.24,0.943c-1.441,1.44,0,2.383,0.942,3.355
		c0.974,0.94,1.939,3.302,1.442,5.708c-0.969,2.385-5.739,17.162-7.15,19.547c-1.44,1.909-1.915,0.966-2.384,0
		c-0.527-0.475-2.882-5.74-3.355-7.156c-0.498-1.438-1.467-5.266-0.965-6.677c0.467-1.414,0-2.383-1.418-1.414
		c-1.466,0.94-6.237,3.798-7.649,4.767c-0.974,0.971-0.974,1.414,0,2.436c0.968,0.444,2.386,1.441,3.351,2.857
		c0.973,1.886,3.8,7.648,4.768,9.532c0.974,1.917,2.887,6.682,2.887,8.599c0,1.885,0,15.717,0,18.099c0,1.914,0,1.44-1.471,4.796
		c-0.944,2.361,0.498,2.853,1.915,1.884c0.969-0.472,4.767-2.882,6.682-4.296c1.44-0.47,1.44-1.884,0.467-2.882
		c-0.467-1.412-0.94-1.908-0.94-4.768c0-2.857,0-11.448,0-13.83c0-2.386,0-3.355,0.94-6.184c0.974-2.884,7.65-19.125,9.067-22.925
		C221.167,141.457,221.643,136.193,217.817,133.36z"/>
</g>
</svg>
